<svg xmlns="http://www.w3.org/2000/svg" viewBox="-6 39 186 138">
<style>
  path{ fill:#A63A52; }
  @media (prefers-color-scheme: dark){
    path{ fill:#EABCC7; }
  }
</style>
<path d="M -5.08,172.66 L -5.08,169.92 C -5.08,168.06 -4.43,166.41 -3.12,164.95 C 1.57,164.47 4.92,163.77 6.93,162.84 C 8.19,162.49 9.28,161.89 10.21,161.02 C 11.15,160.16 12.62,157.74 14.65,153.77 C 16.67,149.79 19.33,142.71 22.63,132.51 L 31.01,108.05 C 32.22,103.94 33.16,100.93 33.82,99.02 L 45.55,66.48 C 47.09,61.65 48.49,57.65 49.73,54.47 C 50.37,52.84 50.69,51.7 50.69,51.03 C 50.69,49.95 50.14,49.15 49.05,48.62 C 47.95,48.09 45.03,47.57 40.28,47.07 C 34.54,47.27 31.47,47.36 31.05,47.36 L 28.32,47.36 L 26.95,39.61 C 30.87,39.38 32.81,39.26 32.76,39.26 C 34.64,39.39 36.26,39.45 37.63,39.45 L 45.97,39.16 C 50.63,39.16 54.89,39.33 58.73,39.68 C 60.19,39.81 62.45,39.92 65.5,39.99 C 66.4,40.9 66.96,41.67 67.16,42.29 C 67.87,44.11 68.57,47.59 69.25,52.73 L 72.05,66.94 C 72.73,69.46 73.61,73.93 74.69,80.36 C 76.77,92.53 78.21,101.88 79,108.41 C 80.98,117.71 82.26,124.7 82.84,129.39 C 82.88,129.76 83.62,134.06 85.05,142.27 C 85.61,145.74 85.64,147.47 85.11,147.46 C 86.71,143.46 88.59,139.67 90.73,136.1 C 92.88,132.53 96.83,125.42 102.59,114.78 L 123.73,78.71 L 128.13,71.15 C 133.41,61.35 139.65,50.82 146.86,39.55 C 151.54,39.75 156.13,39.84 160.6,39.84 C 161.56,39.84 162.43,39.83 163.22,39.79 C 164.02,39.76 165.09,39.75 166.46,39.75 L 176.95,39.48 C 177.53,39.56 178.77,39.68 180.66,39.85 L 180.22,46.15 C 177.76,47.03 174.93,47.77 171.74,48.35 C 167.37,49.25 164.6,50.07 163.43,50.81 C 162.27,51.54 161.54,52.4 161.24,53.36 C 159.22,65.75 156.52,80.87 153.14,98.73 L 144.02,152.07 L 143.96,152.52 C 143.82,153.59 143.65,155.46 143.46,158.15 C 143.39,159.35 143.28,160.32 143.14,161.04 L 143,161.7 C 143,161.81 142.98,161.81 142.94,161.69 C 143.82,162.36 144.59,162.82 145.24,163.08 C 146.68,163.58 149.99,164.18 155.15,164.87 C 157.59,165.2 159.98,165.63 162.3,166.15 L 162.3,168.55 C 162.3,169.31 161.91,170.59 161.13,172.4 C 157.36,172.57 154.8,172.66 153.48,172.66 C 150.1,172.66 146.22,172.44 141.84,172.02 C 138.53,171.66 134.49,171.48 129.71,171.48 C 125.37,171.48 120.27,171.61 114.39,171.87 C 112.23,171.94 110.83,171.97 110.19,171.97 C 109.13,171.97 107.48,171.87 105.25,171.66 C 104.62,169.97 104.3,168.84 104.3,168.26 C 104.3,167.45 104.74,166.09 105.64,164.18 C 108.36,163.97 110.23,163.87 111.26,163.87 C 116.43,163.64 119.99,163.01 121.95,161.98 C 122.47,161.69 122.97,161.13 123.44,160.29 C 124.14,158.95 125.03,155.03 126.12,148.55 L 130.66,124.93 L 135.8,99.84 C 136.72,93.72 137.49,88.37 138.12,83.8 C 139.14,79.1 139.96,74.65 140.59,70.45 C 141.21,66.25 141.74,63.24 142.18,61.4 C 142.72,58.01 143.05,56.32 143.17,56.35 C 134.42,75.17 128.72,86.56 126.07,90.51 C 125.25,91.81 120.79,99.47 112.69,113.5 L 108.51,121.67 C 107.16,123.46 106.06,125.11 105.2,126.62 C 93.92,146.36 85.72,161.14 80.61,170.95 C 79.96,172.16 78.91,173.97 77.48,176.37 L 70.72,176.37 C 70.72,171.93 70.59,168.31 70.33,165.51 C 69.77,158.67 69.17,152.98 68.51,148.44 C 68.38,146.94 67.53,142.3 65.95,134.51 L 60.29,102.94 C 59.7,99.73 59.34,97.29 59.22,95.62 C 59.09,93.95 58.75,91.86 58.18,89.35 C 57.33,85.58 56.23,79.3 54.89,70.49 L 53.68,61.04 C 54.93,61.36 55.4,62.12 55.09,63.33 L 44.95,92.83 L 38.69,111.84 C 36.86,116.53 34.62,123.61 31.96,133.08 C 29.3,142.54 26.79,150.49 24.43,156.94 C 24.05,158.03 23.87,159.03 23.87,159.96 C 23.87,160.61 24.14,161.19 24.68,161.72 C 25.22,162.24 27.07,163.04 30.23,164.11 C 31.37,164.34 32.59,164.57 33.9,164.79 C 37.71,165.06 40.28,165.36 41.63,165.7 C 42.63,165.99 43.54,166.78 44.34,168.06 C 44.34,169.73 43.98,171.62 43.27,173.73 L 34.93,173.44 L 30.56,173.24 C 30.35,173.24 29.82,173.27 28.96,173.34 C 23.09,172.69 17.21,172.36 11.3,172.36 C 10.94,172.36 5.48,172.46 -5.08,172.66 Z" />
</svg>
